<svg xmlns="http://www.w3.org/2000/svg" viewBox="0 0 32 32" id="order-history"><path d="M9,9a1,1,0,0,1,1-1h4a1,1,0,0,1,0,2H10A1,1,0,0,1,9,9Zm8,3H10a1,1,0,0,0,0,2h7a1,1,0,0,0,0-2Zm0,4H10a1,1,0,0,0,0,2h7a1,1,0,0,0,0-2ZM30,8a5.984,5.984,0,0,1-8,5.65V27a3,3,0,0,1-3,3H6a3,3,0,0,1-3-3V25a1,1,0,0,1,1-1H5V6A4,4,0,0,1,9,2H21a.983.983,0,0,1,.8.425A5.988,5.988,0,0,1,30,8ZM6,28H16.184A2.966,2.966,0,0,1,16,27V26H5v1A1,1,0,0,0,6,28ZM20,12.46A5.969,5.969,0,0,1,19.54,4H9A2,2,0,0,0,7,6V24H17a1,1,0,0,1,1,1v2a1,1,0,0,0,2,0ZM28,8a4,4,0,1,0-4,4A4,4,0,0,0,28,8ZM26,7H25a1,1,0,0,0-2,0V8a1,1,0,0,0,1,1h2a1,1,0,0,0,0-2Z"></path></svg>